<svg width="359" height="64" viewBox="0 0 359 64" fill="none" xmlns="http://www.w3.org/2000/svg">
        <path d="M18.4305 48.512C15.1878 48.512 12.3505 47.7653 9.9185 46.272C7.52917 44.736 5.6945 42.7093 4.4145 40.192C3.1345 37.6747 2.4945 34.9013 2.4945 31.872C2.4945 28.8427 3.1345 26.0693 4.4145 23.552C5.6945 21.0347 7.52917 19.0293 9.9185 17.536C12.3505 16 15.1878 15.232 18.4305 15.232C20.9478 15.232 23.2945 15.7227 25.4705 16.704C27.6465 17.6427 29.4385 19.008 30.8465 20.8C32.2545 22.5493 33.1078 24.6187 33.4065 27.008H27.1985C26.8998 25.1733 25.9398 23.6587 24.3185 22.464C22.6972 21.2693 20.7772 20.672 18.5585 20.672C15.4865 20.672 13.1185 21.7387 11.4545 23.872C9.7905 25.9627 8.9585 28.6293 8.9585 31.872C8.9585 35.1147 9.7905 37.8027 11.4545 39.936C13.1612 42.0267 15.5505 43.072 18.6225 43.072C20.7985 43.072 22.6545 42.5387 24.1905 41.472C25.7265 40.4053 26.7505 38.9547 27.2625 37.12H33.4065C32.8945 40.5333 31.2945 43.2853 28.6065 45.376C25.9185 47.4667 22.5265 48.512 18.4305 48.512ZM36.969 2.24H43.177V48H36.969V2.24ZM60.603 48.512C56.9763 48.512 54.0537 47.3173 51.835 44.928C49.659 42.5387 48.571 39.424 48.571 35.584V15.744H54.779V34.368C54.779 36.928 55.4617 38.9973 56.827 40.576C58.235 42.1547 60.0697 42.944 62.331 42.944C64.8483 42.944 66.9177 42.0267 68.539 40.192C70.203 38.3573 71.035 36.032 71.035 33.216V15.744H77.243V48H71.035V42.304C70.1817 44.3093 68.8377 45.8453 67.003 46.912C65.1683 47.9787 63.035 48.512 60.603 48.512ZM96.573 48C93.2877 48 90.6637 47.0613 88.701 45.184C86.781 43.3067 85.821 40.7253 85.821 37.44V21.12H79.229V15.744H85.821V5.632H92.029V15.744H101.565V21.12H92.029V37.248C92.029 38.9547 92.477 40.2773 93.373 41.216C94.269 42.1547 95.485 42.624 97.021 42.624H101.565V48H96.573ZM117.693 48.512C114.45 48.512 111.613 47.7653 109.181 46.272C106.792 44.736 104.957 42.7093 103.677 40.192C102.397 37.6747 101.757 34.9013 101.757 31.872C101.757 28.8427 102.397 26.0693 103.677 23.552C104.957 21.0347 106.792 19.0293 109.181 17.536C111.613 16 114.45 15.232 117.693 15.232C120.21 15.232 122.557 15.7227 124.733 16.704C126.909 17.6427 128.701 19.008 130.109 20.8C131.517 22.5493 132.37 24.6187 132.669 27.008H126.461C126.162 25.1733 125.202 23.6587 123.581 22.464C121.96 21.2693 120.04 20.672 117.821 20.672C114.749 20.672 112.381 21.7387 110.717 23.872C109.053 25.9627 108.221 28.6293 108.221 31.872C108.221 35.1147 109.053 37.8027 110.717 39.936C112.424 42.0267 114.813 43.072 117.885 43.072C120.061 43.072 121.917 42.5387 123.453 41.472C124.989 40.4053 126.013 38.9547 126.525 37.12H132.669C132.157 40.5333 130.557 43.2853 127.869 45.376C125.181 47.4667 121.789 48.512 117.693 48.512ZM136.232 2.24H142.44V21.44C143.293 19.4347 144.616 17.8987 146.408 16.832C148.242 15.7653 150.376 15.232 152.808 15.232C156.434 15.232 159.336 16.4267 161.512 18.816C163.73 21.2053 164.84 24.32 164.84 28.16V48H158.632V29.376C158.632 26.816 157.928 24.7467 156.52 23.168C155.154 21.5893 153.341 20.8 151.08 20.8C148.562 20.8 146.493 21.7173 144.872 23.552C143.25 25.3867 142.44 27.712 142.44 30.528V48H136.232V2.24Z" fill="#ffffff"/>
        <path d="M212.813 15.744H219.021V21.44C219.703 19.5627 220.898 18.0693 222.605 16.96C224.311 15.808 226.338 15.232 228.685 15.232C231.202 15.232 233.378 15.8293 235.213 17.024C237.09 18.176 238.349 19.7973 238.989 21.888C239.671 19.968 240.994 18.3893 242.957 17.152C244.962 15.872 247.138 15.232 249.485 15.232C252.983 15.232 255.735 16.3413 257.741 18.56C259.789 20.7787 260.813 23.7653 260.813 27.52V48H254.605V29.248C254.605 26.6453 253.986 24.576 252.749 23.04C251.554 21.4613 249.89 20.672 247.757 20.672C245.367 20.672 243.447 21.632 241.997 23.552C240.589 25.4293 239.885 27.712 239.885 30.4V48H233.677V29.248C233.677 26.6453 233.058 24.576 231.821 23.04C230.626 21.4613 228.983 20.672 226.893 20.672C224.503 20.672 222.583 21.632 221.133 23.552C219.725 25.4293 219.021 27.712 219.021 30.4V48H212.813V15.744ZM275.71 48.512C272.424 48.512 269.758 47.616 267.71 45.824C265.704 44.032 264.702 41.6853 264.702 38.784C264.702 35.6693 265.832 33.1733 268.094 31.296C270.398 29.4187 273.448 28.48 277.246 28.48H284.03C285.48 28.48 286.206 27.9253 286.206 26.816C286.206 24.8533 285.502 23.2747 284.094 22.08C282.728 20.8427 280.83 20.224 278.398 20.224C276.179 20.224 274.323 20.8213 272.83 22.016C271.336 23.2107 270.547 24.64 270.462 26.304H264.702C264.872 24.2133 265.576 22.336 266.814 20.672C268.051 18.9653 269.694 17.6427 271.742 16.704C273.79 15.7227 276.072 15.232 278.59 15.232C281.32 15.232 283.731 15.744 285.822 16.768C287.912 17.7493 289.512 19.136 290.622 20.928C291.774 22.72 292.35 24.8107 292.35 27.2V48H286.206V42.688C285.395 44.48 284.051 45.9093 282.174 46.976C280.296 48 278.142 48.512 275.71 48.512ZM276.926 43.584C279.827 43.584 282.088 42.7093 283.71 40.96C285.374 39.2107 286.206 36.8427 286.206 33.856V33.28H277.886C275.752 33.28 274.046 33.7707 272.766 34.752C271.528 35.6907 270.91 36.992 270.91 38.656C270.91 40.1493 271.443 41.344 272.51 42.24C273.619 43.136 275.091 43.584 276.926 43.584ZM297.788 15.744H303.996V20.48C304.977 18.9013 306.406 17.6427 308.284 16.704C310.161 15.7227 312.166 15.232 314.3 15.232C317.457 15.232 320.188 15.9573 322.492 17.408C324.796 18.816 326.545 20.7787 327.74 23.296C328.977 25.8133 329.596 28.672 329.596 31.872C329.596 35.072 328.977 37.9307 327.74 40.448C326.545 42.9653 324.796 44.9493 322.492 46.4C320.23 47.808 317.521 48.512 314.364 48.512C312.188 48.512 310.161 48.0427 308.284 47.104C306.406 46.1227 304.977 44.8213 303.996 43.2V61.056H297.788V15.744ZM313.404 43.072C316.39 43.072 318.78 42.048 320.572 40C322.406 37.952 323.324 35.2427 323.324 31.872C323.324 28.5013 322.406 25.792 320.572 23.744C318.78 21.696 316.39 20.672 313.404 20.672C310.417 20.672 308.006 21.696 306.172 23.744C304.38 25.792 303.484 28.5013 303.484 31.872C303.484 35.2427 304.38 37.952 306.172 40C308.006 42.048 310.417 43.072 313.404 43.072ZM344.087 48.512C340.204 48.512 337.132 47.552 334.871 45.632C332.609 43.712 331.351 41.0027 331.095 37.504H336.791C336.961 39.3387 337.687 40.7893 338.967 41.856C340.247 42.9227 341.932 43.456 344.023 43.456C345.943 43.456 347.479 43.0293 348.631 42.176C349.783 41.3227 350.359 40.1707 350.359 38.72C350.359 37.6533 350.017 36.8213 349.335 36.224C348.695 35.584 347.884 35.1147 346.903 34.816C345.921 34.5173 344.556 34.2187 342.807 33.92C340.545 33.536 338.668 33.1093 337.175 32.64C335.724 32.128 334.487 31.2533 333.463 30.016C332.439 28.7787 331.927 27.0507 331.927 24.832C331.927 22.016 332.993 19.712 335.127 17.92C337.303 16.128 340.076 15.232 343.447 15.232C347.159 15.232 350.103 16.128 352.279 17.92C354.497 19.6693 355.713 22.1227 355.927 25.28H350.231C350.06 23.7013 349.356 22.4427 348.119 21.504C346.924 20.5653 345.388 20.096 343.511 20.096C341.847 20.096 340.46 20.5013 339.351 21.312C338.241 22.08 337.687 23.168 337.687 24.576C337.687 25.6 337.985 26.3893 338.583 26.944C339.223 27.4987 340.012 27.904 340.951 28.16C341.889 28.416 343.233 28.6933 344.983 28.992C347.372 29.376 349.292 29.8027 350.743 30.272C352.236 30.7413 353.516 31.616 354.583 32.896C355.649 34.176 356.183 36.0107 356.183 38.4C356.183 41.5147 355.095 43.9893 352.919 45.824C350.785 47.616 347.841 48.512 344.087 48.512Z" fill="#ffffff"/>
        <g clip-path="url(#clip0_185_986)">
        <path d="M195.812 37.2812C196.104 36.9896 196.25 36.6771 196.25 36.3438C196.25 36.0521 196.135 35.8021 195.906 35.5938C195.677 35.3854 195.385 35.2812 195.031 35.2812H161.469V29.125H195.031C195.385 29.125 195.677 29.0208 195.906 28.8125C196.156 28.5833 196.281 28.3125 196.281 28C196.281 27.6875 196.146 27.3958 195.875 27.125L185.312 16.4375H193.094L208.781 32.2188L193 48.0625H185.188L195.812 37.2812Z" fill="#F3AD44"/>
    </g>
</svg>